<svg width="214" height="58" viewBox="0 0 214 58" fill="none" xmlns="http://www.w3.org/2000/svg">
<path d="M214 8.07185V55.2504L35 55.2504V34.5141L121.931 34.5141C127.902 34.5141 133.874 32.8441 139.012 29.6432C139.289 29.504 139.567 29.2256 139.845 29.0865C147.899 23.3805 153.176 13.7778 161.369 8.21102C169.424 2.7834 178.589 0 187.754 0C196.919 0 205.946 2.64423 214 8.07185Z" fill="#ECB91E"/>
<path d="M174 35.2952V58H0V35.2952H34.3147C38.9005 35.2952 43.3282 34.0762 47.1234 31.4857C53.2906 27.219 57.2439 20.2095 63.5692 16.0952C69.7363 11.981 76.6941 10 83.8101 10C90.926 10 97.8838 11.981 103.893 15.9429C110.218 20.0571 114.171 27.0667 120.339 31.3333C123.976 33.9238 128.562 35.1429 133.147 35.1429H170.49L174 35.2952Z" fill="#ECB91E"/>
</svg>
