<svg width="222" height="42" viewBox="0 0 222 42" fill="none" xmlns="http://www.w3.org/2000/svg">
<path d="M2.23076 29.563C0.764831 26.2356 0 22.0763 0 17.2131C0 14.5895 0.31868 12.03 1.01978 9.59838C1.72087 7.16679 2.80438 5.11913 4.33404 3.5194C5.86371 1.91967 7.83952 1.15179 10.1978 1.15179C11.9824 1.15179 13.5758 1.7277 14.9142 2.81552C16.2527 3.96732 17.3362 5.37509 18.0373 7.16679C18.7384 8.95849 19.1208 10.8142 19.1208 12.7978L13.0021 13.1178C13.0021 11.838 12.8109 10.3663 12.3648 8.70253C11.9186 7.03881 11.0901 6.20695 9.81534 6.20695C8.47688 6.20695 7.52084 7.29477 7.01096 9.40641C6.50107 11.582 6.24612 14.1416 6.24612 17.1491C6.24612 20.8605 6.50107 23.868 7.07469 26.1076C7.64831 28.3472 8.73183 29.4991 10.389 29.4991C11.5362 29.4991 12.3648 28.7952 12.8109 27.4514C13.3208 26.1076 13.6395 24.4439 13.767 22.4602L19.1208 22.9721C19.1208 25.0198 18.8021 26.9395 18.101 28.7312C17.3999 30.5229 16.3801 31.9306 15.0417 32.9545C13.6395 34.0423 11.9824 34.5542 10.0065 34.5542C6.3736 34.6182 3.76042 32.9545 2.23076 29.563Z" fill="#ACDDD4"/>
<path d="M24.4747 31.1628C22.945 28.8592 22.1165 25.7877 22.1165 22.0123C22.1165 18.2369 22.8813 15.1655 24.4109 12.9258C25.9406 10.6862 28.1714 9.53439 31.1032 9.53439C33.9713 9.53439 36.2021 10.6862 37.7955 12.9258C39.3889 15.1655 40.1537 18.2369 40.1537 22.0123C40.1537 25.7877 39.4526 28.7952 37.8592 31.0988C36.2658 33.4024 34.0351 34.5542 31.167 34.5542C28.2351 34.5542 26.0043 33.4024 24.4747 31.1628ZM33.6527 27.7074C34.0351 26.1076 34.2263 24.1879 34.2263 21.8843C34.2263 19.5807 34.0351 17.661 33.6527 16.0613C33.2702 14.4616 32.4417 13.6937 31.167 13.6937C29.8922 13.6937 29.0637 14.4616 28.6813 15.9973C28.3626 17.4691 28.1714 19.3248 28.1714 21.4364C28.1714 24.06 28.3626 26.1716 28.6813 27.7713C28.9999 29.3711 29.8285 30.1389 31.1032 30.1389C32.3779 30.1389 33.2702 29.3071 33.6527 27.7074Z" fill="#ACDDD4"/>
<path d="M44.2964 10.3023L50.1601 9.79037V12.8619C51.0524 11.838 52.0722 11.0062 53.2194 10.3663C54.3667 9.72639 55.5139 9.47043 56.6612 9.47043C58.4458 9.47043 59.6568 10.7502 60.2304 13.2458C62.1425 10.7502 64.2458 9.47043 66.604 9.47043C68.1336 9.47043 69.2172 10.1103 69.9183 11.3261C70.5556 12.5419 70.8743 14.3976 70.8743 16.8292V33.7224L64.9468 34.2343V17.1491C64.9468 16.3813 64.8194 15.7414 64.5007 15.2935C64.2458 14.8455 63.8633 14.6536 63.5447 14.6536C62.971 14.6536 62.3974 14.8455 61.8238 15.1655C61.3139 15.4854 60.8677 15.9333 60.4853 16.3813V33.7864L54.6216 34.2983V17.0852C54.6216 16.2533 54.4942 15.6774 54.2392 15.2295C53.9843 14.8455 53.7293 14.5896 53.4106 14.5896C52.837 14.5896 52.2634 14.7815 51.626 15.1015C51.0524 15.4214 50.5425 15.8694 50.0964 16.3173V33.7224L44.2327 34.2343V10.3023H44.2964Z" fill="#ACDDD4"/>
<path d="M75.9094 34.2983V10.3023L81.9006 9.79036V33.7864L75.9094 34.2983ZM75.9732 6.65489V0.447925L81.9643 0V6.39893L75.9732 6.65489Z" fill="#ACDDD4"/>
<path d="M87.1907 10.3023L93.1819 9.79037V12.8619C94.3928 11.774 95.6038 10.9422 96.8148 10.3663C98.0258 9.79038 99.1093 9.47043 100.065 9.47043C101.595 9.47043 102.806 10.0463 103.762 11.1342C104.718 12.222 105.228 13.6937 105.228 15.6134V33.7864L99.2368 34.2983V17.853C99.2368 15.6774 98.5357 14.6536 97.0698 14.6536C96.5599 14.6536 96.05 14.7815 95.4764 15.1015C94.9027 15.3574 94.1379 15.8054 93.2456 16.3813V33.8504L87.2544 34.3623V10.3023H87.1907Z" fill="#ACDDD4"/>
<path d="M111.028 40.1853C109.243 39.2894 108.351 38.0096 108.351 36.4739C108.351 35.3861 108.733 34.4262 109.562 33.7224C110.391 32.9545 111.347 32.3786 112.621 31.8667C111.538 31.5467 110.709 31.1628 110.199 30.6509C109.626 30.139 109.371 29.4351 109.371 28.5392C109.371 27.3874 109.753 26.4276 110.518 25.5317C111.283 24.6359 112.303 23.868 113.577 23.2921C111.028 21.8203 109.69 19.7087 109.69 17.0211C109.69 15.4214 110.136 14.0137 111.028 12.9258C111.92 11.774 113.004 10.9422 114.406 10.3663C115.808 9.79036 117.274 9.5344 118.74 9.5344C120.971 9.5344 123.01 10.1103 124.731 11.3261C125.56 10.5582 126.452 9.91834 127.344 9.40642C128.237 8.89451 129.32 8.63855 130.595 8.63855V12.6699C128.938 12.6699 127.663 12.8618 126.771 13.2458C127.089 14.1416 127.344 14.8455 127.472 15.3574C127.599 15.8693 127.663 16.4452 127.663 17.0211C127.663 19.0048 127.026 20.6685 125.687 22.1403C124.349 23.612 122.246 24.3159 119.25 24.3159L117.657 24.2519C117.402 24.2519 117.083 24.1879 116.7 24.1879C116.318 24.3159 115.999 24.5719 115.617 24.9558C115.235 25.3398 115.107 25.7237 115.107 26.1716C115.107 26.5556 115.235 26.9395 115.553 27.1954C115.808 27.4514 116.191 27.6434 116.637 27.7074L123.52 28.4752C127.472 28.9232 129.511 30.8428 129.511 34.2983C129.511 36.9858 128.492 38.8415 126.452 39.9293C124.413 41.0171 121.736 41.593 118.485 41.593C115.298 41.529 112.813 41.0811 111.028 40.1853ZM123.648 34.4902C123.648 33.9783 123.52 33.6584 123.265 33.4024C123.01 33.1465 122.628 33.0185 122.054 32.8905C121.481 32.7625 120.588 32.6985 119.314 32.6345L115.744 32.3146C115.235 32.5066 114.788 32.8265 114.406 33.2104C114.024 33.6584 113.832 34.1703 113.832 34.6822C113.832 35.4501 114.215 36.026 115.043 36.4739C115.872 36.9218 117.083 37.1138 118.74 37.1138C122.054 37.1778 123.648 36.2819 123.648 34.4902ZM120.716 19.7727C121.226 19.0688 121.417 18.173 121.417 16.8932C121.417 15.6134 121.162 14.6535 120.652 14.0776C120.142 13.5017 119.505 13.1178 118.676 13.1178C117.784 13.1178 117.083 13.5017 116.573 14.2056C116.063 14.9095 115.808 15.8054 115.808 16.8932C115.808 17.853 115.999 18.7489 116.446 19.5807C116.892 20.4126 117.593 20.7965 118.613 20.7965C119.569 20.7965 120.27 20.4766 120.716 19.7727Z" fill="#ACDDD4"/>
<path d="M156 34.4426L162.565 2.51191L171.488 2L178.69 33.9946L171.807 34.3146L170.596 27.4037L162.947 27.4677L161.609 34.4426H156ZM164.031 22.2846L169.385 22.2206L166.325 6.7992L164.031 22.2846Z" fill="#ACDDD4"/>
<path d="M182.514 40.3936C180.729 39.4977 179.837 38.2819 179.837 36.6822C179.837 35.5944 180.22 34.6346 181.048 33.8667C181.813 33.0988 182.833 32.4589 184.107 32.011C183.024 31.691 182.195 31.3071 181.685 30.7952C181.112 30.2833 180.857 29.5794 180.857 28.6836C180.857 27.5317 181.239 26.5719 182.004 25.6121C182.769 24.6522 183.789 23.9483 185.063 23.3085C182.45 21.8367 181.176 19.789 181.176 17.1015C181.176 15.5018 181.558 14.094 182.45 13.0062C183.343 11.9184 184.426 11.0225 185.828 10.4466C187.231 9.8707 188.633 9.55075 190.162 9.55075C192.393 9.55075 194.433 10.1267 196.154 11.3425C196.982 10.5746 197.874 9.93469 198.703 9.35878C199.595 8.84687 200.679 8.59091 201.954 8.59091V12.6222C200.296 12.6222 199.022 12.8142 198.129 13.2621C198.448 14.158 198.703 14.8619 198.83 15.3738C198.958 15.8857 199.022 16.4616 199.022 17.0375C199.022 19.0212 198.384 20.6849 197.11 22.1566C195.835 23.6284 193.668 24.3323 190.672 24.3963H189.079C188.824 24.3963 188.505 24.3323 188.123 24.3323C187.74 24.4603 187.422 24.7162 187.039 25.1002C186.657 25.4841 186.529 25.932 186.529 26.3159C186.529 26.6999 186.657 27.0838 186.976 27.3398C187.294 27.5957 187.613 27.7877 188.059 27.8517L194.943 28.5556C198.894 29.0035 200.934 30.9232 200.934 34.3146C200.934 37.0022 199.914 38.8579 197.938 40.0097C195.899 41.0975 193.285 41.6734 189.971 41.6734C186.784 41.7374 184.299 41.2894 182.514 40.3936ZM195.134 34.6346C195.134 34.1226 195.006 33.8027 194.751 33.5467C194.496 33.2908 194.114 33.1628 193.54 33.0348C192.967 32.9068 192.074 32.8429 190.8 32.7789L187.231 32.5229C186.721 32.7149 186.274 33.0348 185.892 33.4828C185.51 33.9307 185.318 34.4426 185.318 34.9545C185.318 35.7224 185.765 36.2983 186.529 36.7462C187.358 37.1301 188.569 37.3861 190.226 37.3221C193.477 37.3221 195.134 36.4263 195.134 34.6346ZM192.074 19.917C192.584 19.2131 192.776 18.2533 192.776 17.0375C192.776 15.7577 192.521 14.7979 192.011 14.222C191.501 13.5821 190.8 13.2621 190.035 13.2621C189.143 13.2621 188.441 13.6461 187.932 14.3499C187.422 15.0538 187.167 15.9497 187.167 17.0375C187.167 17.9973 187.422 18.8932 187.804 19.7251C188.187 20.5569 188.951 20.9408 189.971 20.9408C190.927 20.9408 191.628 20.6209 192.074 19.917Z" fill="#ACDDD4"/>
<path d="M205.65 31.1791C204.121 28.9395 203.356 25.932 203.356 22.0926C203.356 18.2533 204.057 15.1818 205.586 12.8782C207.116 10.5746 209.347 9.42276 212.279 9.42276C215.083 9.42276 217.25 10.5106 218.716 12.7502C220.246 14.9898 221.011 18.0613 221.011 21.9007C221.011 22.1566 220.947 22.2846 220.883 22.4126C220.819 22.5406 220.756 22.6046 220.756 22.6046L209.283 22.6685C209.283 24.5242 209.538 26.2519 210.048 27.7877C210.558 29.3234 211.323 30.0913 212.279 30.0913C213.362 30.0913 214.191 29.4514 214.764 28.1076C215.274 26.8278 215.593 26.124 215.593 26.06L220.182 27.7237C219.608 29.7714 218.652 31.4351 217.314 32.6509C215.975 33.8667 214.318 34.4426 212.151 34.5066C209.411 34.5705 207.18 33.4827 205.65 31.1791ZM215.083 19.2131C215.083 17.4854 214.828 16.1416 214.382 15.1178C213.936 14.094 213.171 13.6461 212.215 13.6461C211.705 13.6461 211.259 13.902 210.813 14.4139C210.367 14.9258 209.984 15.5657 209.729 16.4616C209.474 17.2934 209.283 18.2533 209.347 19.2771L215.083 19.2131Z" fill="#ACDDD4"/>
<path d="M137.084 23.9472C136.382 22.9234 136 21.5796 136 19.8519C136 18.1242 136.319 16.7804 137.02 15.7566C137.721 14.7327 138.677 14.2208 140.015 14.2208C141.29 14.2208 142.31 14.7327 143.011 15.7566C143.712 16.7804 144.094 18.1242 144.094 19.8519C144.094 21.5796 143.776 22.9234 143.075 23.9472C142.374 24.971 141.354 25.5469 140.079 25.5469C138.804 25.4829 137.785 24.971 137.084 23.9472ZM141.163 22.4115C141.354 21.7076 141.418 20.8117 141.418 19.7879C141.418 18.7641 141.29 17.8682 141.163 17.1643C140.971 16.4605 140.589 16.0765 140.015 16.1405C139.442 16.2045 139.059 16.4605 138.932 17.1643C138.804 17.8042 138.741 18.6361 138.741 19.5959C138.741 20.8117 138.804 21.7076 138.996 22.4115C139.123 23.1153 139.505 23.4353 140.079 23.4353C140.653 23.4353 141.035 23.1153 141.163 22.4115Z" fill="white"/>
<path d="M146.453 16.3325H145.114L145.178 14.2848H146.389V14.0928C146.389 13.325 146.453 12.7491 146.516 12.2371C146.58 11.7892 146.835 11.3413 147.218 11.0213C147.6 10.7014 148.237 10.5094 149.002 10.5094C149.767 10.5094 150.404 10.5734 150.85 10.7654V12.3651H150.277C149.767 12.3651 149.448 12.4931 149.257 12.813C149.13 13.069 149.066 13.5169 149.066 13.9649V14.1568H150.978L150.85 16.2045H149.066L149.13 24.907L146.389 25.163L146.453 16.3325Z" fill="white"/>
</svg>
